<svg width="125" height="80" viewBox="0 0 125 80" fill="none" xmlns="http://www.w3.org/2000/svg">
<path d="M10.424 56C10.296 56 10.232 55.936 10.232 55.808V41.744H5.576C5.416 41.744 5.336 41.68 5.336 41.552V36.32C5.336 36.192 5.416 36.128 5.576 36.128H10.232V22.784C10.232 22.656 10.296 22.592 10.424 22.592H22.424C22.584 22.592 22.664 22.656 22.664 22.784V28.016C22.664 28.144 22.584 28.208 22.424 28.208H15.8V50.384H22.424C22.584 50.384 22.664 50.448 22.664 50.576V55.808C22.664 55.936 22.584 56 22.424 56H10.424Z" fill="#005733"/>
<path d="M38.816 61C38.6453 61 38.56 60.8933 38.56 60.68L38.624 16.712C38.624 16.5413 38.7093 16.456 38.88 16.456H59.424C59.5947 16.456 59.68 16.5627 59.68 16.776V23.944C59.68 24.1147 59.5947 24.2 59.424 24.2H46.304V34.184H59.424C59.5947 34.184 59.68 34.2693 59.68 34.44L59.744 41.672C59.744 41.8427 59.6587 41.928 59.488 41.928H46.304V53.128H59.488C59.6587 53.128 59.744 53.2347 59.744 53.448V60.744C59.744 60.9147 59.6587 61 59.488 61H38.816ZM71.835 61C71.6643 61 71.579 60.8933 71.579 60.68V24.2H63.259C63.0457 24.2 62.939 24.0933 62.939 23.88L63.003 16.712C63.003 16.5413 63.0883 16.456 63.259 16.456H87.579C87.7923 16.456 87.899 16.5413 87.899 16.712V23.88C87.899 24.0933 87.8137 24.2 87.643 24.2H79.259L79.323 60.68C79.323 60.8933 79.2377 61 79.067 61H71.835Z" fill="#00A35D"/>
<path d="M102.064 56C101.904 56 101.824 55.936 101.824 55.808V50.576C101.824 50.448 101.904 50.384 102.064 50.384H108.688V28.208H102.064C101.904 28.208 101.824 28.144 101.824 28.016V22.784C101.824 22.656 101.904 22.592 102.064 22.592H114.064C114.192 22.592 114.256 22.656 114.256 22.784V36.128H118.912C119.072 36.128 119.152 36.192 119.152 36.32V41.552C119.152 41.68 119.072 41.744 118.912 41.744H114.256V55.808C114.256 55.936 114.192 56 114.064 56H102.064Z" fill="#005733"/>
</svg>
