<svg width="200" height="161" viewBox="0 0 200 161" fill="none" xmlns="http://www.w3.org/2000/svg">
<path d="M148.075 139.79L147.851 139.668L147.621 139.777C145.782 140.648 144.377 141.08 143.32 141.174C142.276 141.266 141.622 141.024 141.195 140.6C140.75 140.158 140.465 139.433 140.349 138.385C140.234 137.344 140.294 136.052 140.473 134.551C140.726 132.431 141.208 129.964 141.731 127.292C141.949 126.173 142.175 125.017 142.394 123.836C143.132 119.857 143.785 115.615 143.785 111.617C143.785 107.629 143.316 103.836 142.804 100.406C142.675 99.544 142.545 98.7074 142.418 97.8972C142.038 95.4659 141.695 93.2721 141.561 91.3498C141.381 88.774 141.591 86.8319 142.477 85.5348C143.333 84.2807 144.917 83.5043 147.835 83.5043C148.862 83.5043 149.929 84.1594 150.977 85.5533C152.018 86.9387 152.977 88.975 153.792 91.5362C155.419 96.6529 156.433 103.752 156.433 111.617C156.433 114.875 156.626 118.325 156.813 121.667C156.853 122.394 156.894 123.116 156.932 123.83C157.145 127.84 157.285 131.588 157.004 134.601C156.864 136.107 156.621 137.406 156.241 138.452C155.861 139.498 155.357 140.256 154.718 140.727C153.478 141.639 151.454 141.639 148.075 139.79Z" fill="white" stroke="black"/>
<path d="M60.3955 149.743L60.1719 149.62L59.9416 149.729C58.1029 150.6 56.698 151.033 55.6414 151.126C54.597 151.218 53.9431 150.977 53.5159 150.552C53.071 150.11 52.7858 149.386 52.6701 148.338C52.5551 147.296 52.6148 146.004 52.794 144.504C53.0473 142.383 53.5293 139.917 54.0515 137.244C54.2702 136.125 54.4959 134.97 54.7149 133.789C55.4526 129.809 56.1062 125.568 56.1062 121.569C56.1062 117.581 55.6365 113.788 55.1249 110.358C54.9964 109.496 54.8657 108.66 54.7391 107.849C54.3591 105.418 54.0163 103.224 53.882 101.302C53.7019 98.7262 53.912 96.7841 54.7977 95.487C55.6541 94.2329 57.2379 93.4565 60.1556 93.4565C61.1826 93.4565 62.2496 94.1116 63.2976 95.5055C64.3391 96.8909 65.2984 98.9272 66.1129 101.488C67.74 106.605 68.7543 113.705 68.7543 121.569C68.7543 124.828 68.947 128.277 69.1337 131.619C69.1743 132.346 69.2146 133.068 69.2526 133.782C69.4661 137.793 69.6056 141.54 69.3252 144.554C69.185 146.059 68.9419 147.359 68.5622 148.404C68.1823 149.45 67.6784 150.208 67.0388 150.679C65.7985 151.591 63.775 151.591 60.3955 149.743Z" fill="white" stroke="black"/>
<path fill-rule="evenodd" clip-rule="evenodd" d="M124.017 29.0754C124.055 28.5125 124.074 27.9445 124.074 27.3721C124.074 13.631 112.964 2.49176 99.2594 2.49176C90.1544 2.49176 82.1946 7.40848 77.8772 14.7383C73.3397 9.76074 66.8113 6.63849 59.5556 6.63849C48.2513 6.63849 38.7124 14.2172 35.7176 24.5835C34.0677 24.237 32.3575 24.0549 30.6049 24.0549C16.9001 24.0549 5.7901 35.1942 5.7901 48.9352C5.7901 53.6467 7.09629 58.0524 9.36539 61.808C3.65806 66.3665 0 73.3945 0 81.2793C0 95.0203 11.11 106.16 24.8148 106.16L24.8149 106.16C24.8149 119.901 35.9249 131.04 49.6297 131.04C56.1375 131.04 62.0602 128.528 66.486 124.419C69.6523 134.506 79.0544 141.822 90.1606 141.822C98.1356 141.822 105.232 138.05 109.772 132.188C113.286 134.101 117.313 135.187 121.593 135.187C135.298 135.187 146.408 124.048 146.408 110.307C146.408 107.207 145.842 104.24 144.81 101.504C156.108 99.1766 164.605 89.1495 164.605 77.1326C164.605 63.3916 153.495 52.2523 139.79 52.2523C139.79 41.7101 133.251 32.6992 124.017 29.0754Z" fill="#252525"/>
<path d="M152.323 22.9548C175.638 23.5215 191.471 45.0744 196.474 55.78C191.765 57.1436 176.007 54.1198 150.649 31.1157L145.871 25.5267L152.323 22.9548Z" fill="white" stroke="black"/>
<path d="M109.375 35.9784C88.7453 47.5723 86.8676 73.6141 88.5075 85.1858C93.5213 84.1127 105.951 74.0104 115.557 42.1855L116.648 35.1122L109.375 35.9784Z" fill="white" stroke="black"/>
<path d="M160.441 32.6932L160.436 32.7718L160.455 32.8483C162.39 40.6304 162.957 50.0206 161.024 57.217C160.059 60.8122 158.481 63.8172 156.183 65.8153C153.9 67.8008 150.861 68.8317 146.875 68.4081L146.699 68.3895L146.551 68.4848C142.818 70.8852 139.133 71.5596 135.64 71.0061C132.136 70.4509 128.789 68.6534 125.765 66.0462C119.71 60.8256 115.04 52.4333 113.113 44.6832L113.087 44.5789L113.02 44.4945C110.415 41.1882 109.421 37.9251 109.561 34.8459C109.703 31.7587 110.987 28.8048 113.029 26.1335C117.121 20.7796 124.191 16.6497 130.773 15.0042C137.309 13.3705 144.976 14.6291 150.894 17.9097C156.815 21.1922 160.873 26.4255 160.441 32.6932Z" fill="white" stroke="#515151"/>
<path fill-rule="evenodd" clip-rule="evenodd" d="M152.505 10.3034C157.819 11.7397 161.673 14.8865 161.113 17.3319C160.721 19.042 158.275 19.9562 155.022 19.8603C154.257 22.1518 149.611 22.8875 144.442 21.4905C142.017 20.835 139.896 19.8232 138.36 18.6844C137.513 18.9435 136.492 19.0831 135.357 19.0931C133.888 20.5642 131.535 21.97 128.732 22.9121C126.348 23.7135 124.05 24.0408 122.189 23.9318C120.78 25.5766 118.222 27.1952 115.109 28.2417C109.884 29.9977 105.076 29.4773 104.368 27.0794C104.134 26.2885 104.376 25.3922 104.992 24.483C104.314 24.2319 103.783 23.879 103.439 23.429C101.825 23.1407 100.697 22.4453 100.382 21.3782C99.6742 18.9802 103.335 15.6127 108.56 13.8567C109.603 13.506 110.63 13.2461 111.611 13.0738C112.685 11.0895 115.652 8.96822 119.441 7.6946C120.23 7.42933 121.01 7.216 121.767 7.05325C121.062 6.15979 120.747 5.25336 120.937 4.42701C121.497 1.98158 126.258 1.16353 131.572 2.59984C132.578 2.87173 133.531 3.20491 134.413 3.58302C136.237 2.38853 139.912 2.19766 143.897 3.27491C149.211 4.71123 153.065 7.85799 152.505 10.3034Z" fill="#353535"/>
<ellipse rx="6.65571" ry="9.95749" transform="matrix(-0.0581096 -0.99831 -0.998292 0.0584154 147.628 30.4515)" fill="black"/>
<path d="M155.388 29.7413C153.633 28.4967 154.054 26.409 149.094 26.816C144.134 27.2231 142.574 30.0146 140.437 31.5217C142.79 32.6603 144.782 35.1603 149.742 34.7532C154.702 34.3462 155.218 32.43 155.388 29.7413Z" fill="white"/>
<ellipse rx="2.49562" ry="2.48965" transform="matrix(-0.213178 -0.977013 -0.976779 0.214251 150.653 27.8594)" fill="black"/>
<ellipse rx="6.6541" ry="9.95992" transform="matrix(-0.309043 -0.951048 0.950568 -0.310517 121.536 35.3915)" fill="black"/>
<path d="M114.053 37.5672C115.235 35.7668 114.083 33.977 118.85 32.5425C123.616 31.108 126.084 33.1369 128.622 33.7588C126.845 35.6795 125.9 38.7355 121.133 40.17C116.366 41.6045 115.189 40.0088 114.053 37.5672Z" fill="white"/>
<ellipse rx="2.49575" ry="2.48951" transform="matrix(-0.156825 -0.987626 0.987498 -0.157629 125.552 32.9222)" fill="black"/>
<path d="M24.8275 154.719L24.6039 154.596L24.3736 154.705C22.5349 155.576 21.13 156.009 20.0734 156.102C19.0291 156.194 18.3751 155.953 17.9479 155.528C17.503 155.086 17.2178 154.362 17.1021 153.314C16.9871 152.272 17.0468 150.98 17.226 149.48C17.4793 147.359 17.9613 144.893 18.4835 142.22C18.7022 141.101 18.9279 139.946 19.1469 138.765C19.8846 134.785 20.5382 130.544 20.5382 126.545C20.5382 122.557 20.0685 118.764 19.5569 115.334C19.4284 114.472 19.2977 113.636 19.1711 112.825C18.7911 110.394 18.4483 108.2 18.314 106.278C18.1339 103.702 18.344 101.76 19.2297 100.463C20.0861 99.209 21.6699 98.4326 24.5876 98.4326C25.6146 98.4326 26.6816 99.0876 27.7296 100.482C28.7711 101.867 29.7304 103.903 30.5449 106.464C32.172 111.581 33.1863 118.681 33.1863 126.545C33.1863 129.804 33.379 133.253 33.5657 136.595C33.6063 137.322 33.6466 138.044 33.6846 138.758C33.8981 142.769 34.0376 146.516 33.7572 149.53C33.617 151.035 33.3739 152.335 32.9942 153.38C32.6143 154.427 32.1104 155.184 31.4708 155.655C30.2305 156.567 28.207 156.567 24.8275 154.719Z" fill="white" stroke="black"/>
<path d="M109.198 158.036L108.974 157.914L108.744 158.023C106.905 158.893 105.501 159.326 104.444 159.419C103.4 159.511 102.746 159.27 102.318 158.845C101.874 158.403 101.588 157.679 101.473 156.631C101.358 155.59 101.417 154.297 101.597 152.797C101.85 150.677 102.332 148.21 102.854 145.538C103.073 144.418 103.298 143.263 103.517 142.082C104.255 138.103 104.909 133.861 104.909 129.862C104.909 125.874 104.439 122.082 103.927 118.651C103.799 117.789 103.668 116.953 103.542 116.143C103.162 113.711 102.819 111.518 102.685 109.595C102.504 107.019 102.715 105.077 103.6 103.78C104.457 102.526 106.04 101.75 108.958 101.75C109.985 101.75 111.052 102.405 112.1 103.799C113.142 105.184 114.101 107.22 114.915 109.782C116.543 114.898 117.557 121.998 117.557 129.862C117.557 133.121 117.75 136.57 117.936 139.912C117.977 140.639 118.017 141.362 118.055 142.076C118.269 146.086 118.408 149.833 118.128 152.847C117.988 154.353 117.744 155.652 117.365 156.697C116.985 157.744 116.481 158.502 115.841 158.972C114.601 159.884 112.578 159.884 109.198 158.036Z" fill="white" stroke="black"/>
<path d="M133.506 58.2187C132.48 54.7018 139.978 60.0571 144.875 59.2514C147.738 56.2591 151.533 49.1132 152.559 52.63C153.585 56.1469 150.268 60.6469 145.006 62.1902C139.745 63.7334 134.532 61.7355 133.506 58.2187Z" fill="black"/>
<path d="M144.843 63.5121C144.402 61.0644 144.984 60.2736 145.825 60.1215C146.665 59.9694 147.445 60.5135 147.886 62.9612C148.327 65.4088 148.003 67.5164 147.163 67.6685C146.322 67.8206 145.284 65.9597 144.843 63.5121Z" fill="black"/>
<path d="M150.863 57.4257C149.526 59.0069 147.602 59.546 147.111 59.1284C146.62 58.7108 147.306 57.0905 148.643 55.5092C149.98 53.928 151.268 52.2383 151.759 52.6559C152.25 53.0735 152.2 55.8445 150.863 57.4257Z" fill="#262626"/>
<path d="M137.616 61.3654C139.557 62.0807 141.449 61.7261 141.645 61.193C141.84 60.6598 140.426 59.6477 138.485 58.9324C136.544 58.2171 134.589 57.3949 134.393 57.9281C134.198 58.4612 135.675 60.6501 137.616 61.3654Z" fill="#262626"/>
</svg>
